<svg width="70" height="100" viewBox="0 0 70 100" fill="none" xmlns="http://www.w3.org/2000/svg">
<path d="M0 0H70V73L0 100V0Z" fill="#0D2B6D"/>
<path d="M3 4H67V71.16L3 96V4Z" fill="#0D2B6D"/>
<path d="M3.5 4.5H66.5V70.8177L3.5 95.2696V4.5Z" stroke="white" stroke-opacity="0.5"/>
<path d="M32.2691 61V24.46C31.8691 24.74 31.3291 25.08 30.6491 25.48C29.9691 25.88 28.6891 26.42 26.8091 27.1C24.9291 27.74 23.1891 28.06 21.5891 28.06C21.3491 27.54 21.2291 26.66 21.2291 25.42L21.6491 25C23.7291 25 25.9491 24.5 28.3091 23.5C30.6691 22.5 32.5291 21.5 33.8891 20.5L35.8691 19H38.5691V61H32.2691Z" fill="#FDA700"/>
</svg>
