<svg width="70" height="100" viewBox="0 0 70 100" fill="none" xmlns="http://www.w3.org/2000/svg">
<path d="M0 0H70V73L0 100V0Z" fill="#0D2B6D"/>
<path d="M3 4H67V71.16L3 96V4Z" fill="#0D2B6D"/>
<path d="M3.5 4.5H66.5V70.8177L3.5 95.2696V4.5Z" stroke="white" stroke-opacity="0.5"/>
<path d="M46.8917 29.62C46.8917 31.5 46.4717 33.44 45.6317 35.44C44.7917 37.4 43.6917 39.22 42.3317 40.9C41.0117 42.54 39.5317 44.16 37.8917 45.76C36.2917 47.32 34.6717 48.7 33.0317 49.9C31.4317 51.1 29.9517 52.16 28.5917 53.08C27.2717 54 26.1917 54.7 25.3517 55.18L24.0917 55.9H36.8117C38.8517 55.9 40.6917 55.8 42.3317 55.6C44.0117 55.36 45.1717 55.12 45.8117 54.88L46.7117 54.52L47.3117 55.12V61H17.0117V57.82C17.3317 57.62 17.7717 57.32 18.3317 56.92C18.8917 56.52 19.9717 55.72 21.5717 54.52C23.1717 53.28 24.6917 52.02 26.1317 50.74C27.6117 49.46 29.2317 47.9 30.9917 46.06C32.7917 44.18 34.3317 42.36 35.6117 40.6C36.8917 38.84 37.9717 36.92 38.8517 34.84C39.7317 32.76 40.1717 30.8 40.1717 28.96C40.1717 26.52 39.4517 24.58 38.0117 23.14C36.5717 21.7 34.5317 20.98 31.8917 20.98C29.3717 20.98 27.3517 21.7 25.8317 23.14C24.3517 24.54 23.6117 26.58 23.6117 29.26C23.6117 30.02 23.6517 30.72 23.7317 31.36C23.8517 31.96 23.9717 32.38 24.0917 32.62L24.2117 32.98L23.6717 33.58C22.5917 33.58 21.5717 33.54 20.6117 33.46C19.6517 33.34 18.9717 33.24 18.5717 33.16L17.9117 32.98C17.5117 32.3 17.3117 31.18 17.3117 29.62C17.3117 26.22 18.5717 23.52 21.0917 21.52C23.6517 19.52 27.2717 18.52 31.9517 18.52C36.6717 18.52 40.3317 19.52 42.9317 21.52C45.5717 23.52 46.8917 26.22 46.8917 29.62Z" fill="#FDA700"/>
</svg>
