<svg width="70" height="100" viewBox="0 0 70 100" fill="none" xmlns="http://www.w3.org/2000/svg">
<path d="M0 0H70V73L0 100V0Z" fill="#0D2B6D"/>
<path d="M3 4H67V71.16L3 96V4Z" fill="#0D2B6D"/>
<path d="M3.5 4.5H66.5V70.8177L3.5 95.2696V4.5Z" stroke="white" stroke-opacity="0.5"/>
<path d="M31.9398 59.02C34.9398 59.02 37.2398 58.22 38.8398 56.62C40.4798 55.02 41.2998 52.74 41.2998 49.78C41.2998 46.94 40.5598 44.76 39.0798 43.24C37.6398 41.72 35.4998 40.96 32.6598 40.96H29.1198L28.6998 40.54V37.84H31.4598C36.8998 37.84 39.6198 34.98 39.6198 29.26C39.6198 23.74 36.9998 20.98 31.7598 20.98C29.2398 20.98 27.2198 21.64 25.6998 22.96C24.1798 24.28 23.4198 26.18 23.4198 28.66C23.4198 29.34 23.4598 29.96 23.5398 30.52C23.6598 31.08 23.7798 31.48 23.8998 31.72L24.0198 32.08L23.4198 32.62C22.3398 32.62 21.3198 32.58 20.3598 32.5C19.4398 32.38 18.7798 32.28 18.3798 32.2L17.7198 32.08C17.2798 31.4 17.0598 30.36 17.0598 28.96C17.0598 25.8 18.3598 23.28 20.9598 21.4C23.5598 19.48 27.2398 18.52 31.9998 18.52C36.6398 18.52 40.1798 19.48 42.6198 21.4C45.0998 23.28 46.3398 25.96 46.3398 29.44C46.3398 34.6 43.7798 37.88 38.6598 39.28C41.7798 39.84 44.1398 41.04 45.7398 42.88C47.3398 44.72 48.1398 47.02 48.1398 49.78C48.1398 53.54 46.7198 56.44 43.8798 58.48C41.0798 60.48 37.1598 61.48 32.1198 61.48C27.0798 61.48 23.2398 60.5 20.5998 58.54C17.9598 56.58 16.6398 53.94 16.6398 50.62C16.6398 49.94 16.6998 49.34 16.8198 48.82C16.9398 48.3 17.0598 47.94 17.1798 47.74L17.2998 47.44C18.6998 47.04 20.6198 46.84 23.0598 46.84L23.5998 47.44C23.1998 48.16 22.9998 49.32 22.9998 50.92C22.9998 53.52 23.7798 55.52 25.3398 56.92C26.8998 58.32 29.0998 59.02 31.9398 59.02Z" fill="#FDA700"/>
</svg>
