<svg width="107" height="106" viewBox="0 0 107 106" fill="none" xmlns="http://www.w3.org/2000/svg">
<path d="M106.043 52.5342C106.043 81.5481 82.5227 105.068 53.5089 105.068C24.495 105.068 0.974609 81.5481 0.974609 52.5342C0.974609 23.5204 24.495 0 53.5089 0C82.5227 0 106.043 23.5204 106.043 52.5342Z" fill="#0D2B6D"/>
<path d="M102.541 52.5342C102.541 79.6138 80.5885 101.566 53.5089 101.566C26.4293 101.566 4.4769 79.6138 4.4769 52.5342C4.4769 25.4546 26.4293 3.50226 53.5089 3.50226C80.5885 3.50226 102.541 25.4546 102.541 52.5342Z" fill="#0D2B6D" stroke="white" stroke-opacity="0.5"/>
<path d="M78.0244 44.4504C78.0251 44.8992 77.8401 45.33 77.5114 45.647L54.7402 67.6529C54.4118 67.9702 53.9669 68.1487 53.5024 68.1487C53.0379 68.1487 52.5923 67.9702 52.2642 67.6529L29.493 45.647C28.8209 44.9845 28.8263 43.9216 29.5053 43.2655C30.1843 42.6096 31.2834 42.6041 31.9696 43.2536L53.5012 64.0616L75.0337 43.2527C75.5345 42.7688 76.288 42.6241 76.9421 42.886C77.5967 43.148 78.0236 43.7652 78.0236 44.4496L78.0244 44.4504Z" fill="white"/>
</svg>
