<svg width="187" height="53" viewBox="0 0 187 53" fill="none" xmlns="http://www.w3.org/2000/svg">
<path d="M48.7328 8.90677C50.2312 8.90677 51.5877 8.89357 52.9442 8.90677C56.3954 8.94857 58.8558 10.6801 59.6338 13.8086C59.9286 14.9901 59.8998 16.2662 59.8953 17.4983C59.8953 18.1979 59.4631 18.8183 58.6629 18.7567C57.8628 18.6951 57.8362 17.9867 57.8073 17.3399C57.7564 16.1782 57.794 14.9901 57.5591 13.8593C57.2355 12.3016 55.8745 11.3159 54.2697 11.3159C38.1273 11.3071 21.9841 11.3071 5.84021 11.3159C4.92793 11.3217 4.05487 11.6849 3.41103 12.3264C2.76718 12.968 2.40465 13.836 2.40234 14.7415C2.39051 25.4092 2.39051 36.0791 2.40234 46.7511C2.40234 48.7313 3.92954 50.2097 6.00202 50.2537C7.25659 50.2802 8.51338 50.2537 9.77016 50.2537H53.6602C56.3533 50.2537 57.8206 48.8347 57.8716 46.1813C57.8916 45.2661 57.8716 44.3376 57.9824 43.4466C58.0778 42.9845 58.3282 42.2167 59.0331 42.2167C59.738 42.2167 60.117 42.9757 60.1525 43.396C60.3741 46.0537 60.312 48.6895 58.131 50.7026C56.9229 51.8445 55.3128 52.4722 53.6446 52.4517C38.2019 52.4517 22.7592 52.3857 7.31865 52.4979C3.44633 52.5309 -0.0159257 50.0689 0.0439212 45.3057C0.119284 39.2575 0.0616537 33.205 0.0616537 27.1568C0.0616537 23.6718 0.179131 20.1846 0.0306219 16.7062C-0.146702 12.5744 1.79278 9.83522 6.53843 8.86276C15.4024 7.04326 24.2155 4.99054 33.0462 3.03243C36.7168 2.21838 40.3808 1.38233 44.0536 0.581487C46.2879 0.0908588 48.6663 1.93237 48.7239 4.2073C48.7638 5.70778 48.7328 7.21047 48.7328 8.90677ZM18.6142 8.42274L18.694 8.81216H46.729C46.729 7.33148 46.7401 5.90799 46.729 4.48451C46.7135 3.12043 45.9089 2.5154 44.559 2.80362C36.7168 4.46984 28.8747 6.13827 21.0325 7.8089C20.2212 7.98271 19.4188 8.20273 18.6142 8.42274Z" fill="white"/>
<path d="M23.9583 39.8451C21.5733 39.2203 19.2393 38.5251 17.1934 37.8166C16.8522 37.6707 16.4889 37.5822 16.1184 37.5548C11.9224 37.3986 8.32941 34.3272 8.32941 28.6795C8.32941 23.0318 11.7917 19.439 16.5639 19.439C21.3362 19.439 24.4837 23.133 24.4837 28.3143C24.4837 32.8157 22.3846 35.7045 19.4476 36.721V36.8244C21.2054 37.2644 23.1205 37.6824 24.6144 37.9442L23.9583 39.8451ZM22.0698 28.4199C22.0698 24.8997 20.2345 21.2871 16.4863 21.2871C12.6317 21.2871 10.7432 24.8271 10.7698 28.6289C10.7521 32.3493 12.8224 35.7045 16.3888 35.7045C20.035 35.7045 22.0787 32.4285 22.0787 28.4199H22.0698Z" fill="white"/>
<path d="M38.7294 33.8344C38.7294 35.1347 38.756 36.281 38.8358 37.2688H36.79L36.6592 35.2139H36.606C36.1781 35.938 35.5642 36.5363 34.827 36.9476C34.0897 37.3589 33.2556 37.5685 32.41 37.5548C30.4151 37.5548 28.0323 36.4548 28.0323 32.0369V24.6709H30.3398V31.6475C30.3398 34.0412 31.0735 35.6561 33.1703 35.6561C33.828 35.6454 34.4679 35.4418 35.0094 35.0711C35.5509 34.7004 35.9699 34.179 36.2137 33.5726C36.3527 33.1979 36.4232 32.8015 36.422 32.4021V24.6709H38.7294V33.8344Z" fill="white"/>
<path d="M50.2423 37.2688L50.0583 35.6803H49.9807C49.5301 36.2761 48.9431 36.7569 48.2682 37.0829C47.5933 37.4088 46.8499 37.5706 46.0995 37.5548C43.5283 37.5548 42.2183 35.7595 42.2183 33.9378C42.2183 30.8929 44.9447 29.2274 49.8499 29.2516V28.992C49.8499 27.9513 49.5596 26.0768 46.9684 26.0768C45.8015 26.0809 44.6585 26.4052 43.6657 27.014L43.1404 25.5048C44.1888 24.8271 45.7094 24.3849 47.3098 24.3849C51.1909 24.3849 52.1352 27.025 52.1352 29.5398V34.2503C52.1178 35.2605 52.1875 36.2704 52.3435 37.2688H50.2423ZM49.892 30.8401C47.3762 30.7873 44.5169 31.2317 44.5169 33.6782C44.5169 35.1611 45.5143 35.8629 46.6935 35.8629C47.3641 35.8805 48.0229 35.6857 48.5744 35.3067C49.126 34.9278 49.5417 34.3844 49.7613 33.7552C49.8432 33.5208 49.8874 33.2751 49.892 33.027V30.8401Z" fill="white"/>
<path d="M56.5085 28.0811C56.5085 26.7808 56.4819 25.7138 56.4043 24.6709H58.4502L58.581 26.7544H58.6342C59.2614 25.5576 60.731 24.3849 62.8279 24.3849C64.5856 24.3849 67.312 25.4255 67.312 29.7466V37.2688H65.0045V30.0084C65.0045 27.9777 64.2442 26.2858 62.0676 26.2858C61.3659 26.2955 60.6858 26.5284 60.1272 26.9501C59.5687 27.3719 59.1611 27.9603 58.9644 28.6289C58.8534 28.9736 58.8002 29.3341 58.807 29.696V37.2688H56.5085V28.0811Z" fill="white"/>
<path d="M74.3916 21.0538V24.6708H77.6965V26.4155H74.3916V33.2095C74.3916 34.7694 74.8349 35.6561 76.1228 35.6561C76.571 35.661 77.018 35.6085 77.4527 35.4999L77.5569 37.2182C76.8997 37.4446 76.2063 37.5497 75.511 37.5284C74.436 37.5284 73.5715 37.1918 73.0196 36.5669C72.3657 35.8893 72.133 34.7694 72.133 33.2865V26.4155H70.1669V24.6708H72.133V21.6523L74.3916 21.0538Z" fill="white"/>
<path d="M92.277 30.8643C92.277 35.5241 89.0253 37.5526 85.9576 37.5526C82.5219 37.5526 79.8732 35.0555 79.8732 31.0733C79.8732 26.8556 82.6527 24.3827 86.166 24.3827C89.8122 24.3849 92.277 27.014 92.277 30.8643ZM82.2072 30.9941C82.2072 33.753 83.8053 35.8343 86.0618 35.8343C88.265 35.8343 89.9164 33.7794 89.9164 30.9413C89.9164 28.8071 88.8414 26.101 86.115 26.101C83.3886 26.101 82.2072 28.6025 82.2072 30.9963V30.9941Z" fill="white"/>
<path d="M95.8435 28.081C95.8435 26.7808 95.8169 25.7137 95.7371 24.6709H97.7563L97.8605 26.7016H97.9403C98.6474 25.5047 99.8288 24.3848 101.93 24.3848C102.721 24.3751 103.494 24.6134 104.14 25.0657C104.786 25.5181 105.272 26.1615 105.528 26.904H105.579C105.93 26.2649 106.413 25.7059 106.995 25.2627C107.798 24.6536 108.791 24.3423 109.801 24.3826C111.479 24.3826 113.97 25.4827 113.97 29.85V37.2666H111.707V30.1382C111.707 27.718 110.821 26.2593 108.954 26.2593C107.642 26.2593 106.62 27.223 106.226 28.3407C106.106 28.7112 106.044 29.0978 106.042 29.4869V37.2688H103.788V29.7201C103.788 27.7158 102.901 26.2593 101.139 26.2593C99.698 26.2593 98.6474 27.4056 98.2817 28.5497C98.1529 28.9089 98.0906 29.2883 98.0977 29.6695V37.2688H95.8435V28.081Z" fill="white"/>
<path d="M125.395 37.2688L125.211 35.6803H125.133C124.682 36.2761 124.095 36.7569 123.42 37.0829C122.746 37.4088 122.002 37.5706 121.252 37.5548C118.683 37.5548 117.371 35.7595 117.371 33.9378C117.371 30.8929 120.097 29.2274 125.002 29.2516V28.992C125.002 27.9513 124.714 26.0768 122.121 26.0768C120.954 26.0809 119.811 26.4053 118.818 27.014L118.293 25.5048C119.341 24.8271 120.864 24.3849 122.462 24.3849C126.343 24.3849 127.287 27.025 127.287 29.5398V34.2503C127.274 35.2609 127.349 36.2708 127.509 37.2688H125.395ZM125.053 30.8401C122.537 30.7873 119.678 31.2317 119.678 33.6782C119.678 35.1611 120.675 35.8629 121.855 35.8629C122.525 35.8808 123.184 35.6861 123.736 35.3071C124.288 34.9281 124.703 34.3846 124.922 33.7552C125.004 33.5208 125.049 33.2751 125.053 33.027V30.8401Z" fill="white"/>
<path d="M131.661 28.0811C131.661 26.7808 131.636 25.7138 131.557 24.6709H133.602L133.733 26.7544H133.786C134.416 25.5576 135.883 24.3849 137.982 24.3849C139.738 24.3849 142.464 25.4255 142.464 29.7466V37.2688H140.157V30.0084C140.157 27.9777 139.397 26.2858 137.22 26.2858C136.518 26.2955 135.838 26.5284 135.28 26.9501C134.721 27.3719 134.313 27.9603 134.117 28.6289C134.006 28.9738 133.954 29.3343 133.962 29.696V37.2688H131.661V28.0811Z" fill="white"/>
<path d="M149.44 21.1309C149.466 21.9119 148.89 22.5368 147.972 22.5368C147.787 22.5392 147.603 22.5044 147.431 22.4343C147.26 22.3641 147.105 22.2602 146.975 22.1288C146.845 21.9974 146.743 21.8412 146.676 21.6697C146.608 21.4982 146.577 21.3149 146.583 21.1309C146.578 20.9416 146.612 20.7533 146.683 20.5774C146.753 20.4016 146.86 20.2419 146.995 20.1081C147.13 19.9743 147.291 19.8692 147.468 19.7991C147.645 19.7291 147.835 19.6957 148.026 19.7008C148.215 19.6941 148.405 19.7267 148.581 19.7966C148.757 19.8664 148.917 19.972 149.05 20.1065C149.183 20.2411 149.287 20.4016 149.354 20.578C149.421 20.7544 149.45 20.9427 149.44 21.1309ZM146.871 37.2688V24.6709H149.178V37.2688H146.871Z" fill="white"/>
<path d="M160.689 37.2688L160.507 35.6803H160.427C159.977 36.2763 159.39 36.7571 158.715 37.0831C158.04 37.4091 157.296 37.5708 156.546 37.5548C153.977 37.5548 152.665 35.7595 152.665 33.9378C152.665 30.8929 155.393 29.2274 160.296 29.2516V28.992C160.296 27.9513 160.008 26.0768 157.415 26.0768C156.247 26.0805 155.103 26.4049 154.11 27.014L153.585 25.5048C154.635 24.8271 156.156 24.3849 157.754 24.3849C161.635 24.3849 162.579 27.025 162.579 29.5398V34.2503C162.566 35.2609 162.641 36.2708 162.801 37.2688H160.689ZM160.35 30.8401C157.832 30.7873 154.972 31.2317 154.972 33.6782C154.972 35.1611 155.97 35.8629 157.149 35.8629C157.82 35.8812 158.479 35.6866 159.03 35.3076C159.582 34.9285 159.998 34.3847 160.217 33.7552C160.299 33.5209 160.344 33.2752 160.35 33.027V30.8401Z" fill="white"/>
<path d="M169.894 31.7443L168.059 37.2622H165.698L171.703 19.7206H174.462L180.494 37.2622H178.055L176.16 31.7443H169.894ZM175.688 29.9842L173.959 24.9239C173.565 23.7776 173.294 22.737 173.039 21.7227H172.988C172.725 22.7634 172.436 23.8304 172.102 24.8975L170.366 29.9842H175.688Z" fill="white"/>
<path d="M186.02 19.7272V37.2688H183.739V19.7272H186.02Z" fill="white"/>
</svg>
